HIERARCHY
ROOT Hips
{
	OFFSET -3.958830 18.904000 13.208200
	CHANNELS 6 Xposition Yposition Zposition Zrotation Yrotation Xrotation 
	JOINT LHipJoint
	{
		OFFSET 0.000000 0.000000 0.000000
		CHANNELS 3 Zrotation Yrotation Xrotation
		JOINT LeftUpLeg
		{
			OFFSET 1.800000 -1.400000 0.085000
			CHANNELS 3 Zrotation Yrotation Xrotation
			JOINT LeftLeg
			{
				OFFSET 2.215000 -6.000000 0.000000
				CHANNELS 3 Zrotation Yrotation Xrotation
				JOINT LeftFoot
				{
					OFFSET 2.500000 -6.900000 0.000000
					CHANNELS 3 Zrotation Yrotation Xrotation
					JOINT LeftToeBase
					{
						OFFSET 0.200000 -0.500000 1.950000
						CHANNELS 3 Zrotation Yrotation Xrotation
						End Site
						{
							OFFSET 0.000000 0.000000 0.000000
						}
					}
				}
			}
		}
	}
	JOINT RHipJoint
	{
		OFFSET 0.000000 0.000000 0.000000
		CHANNELS 3 Zrotation Yrotation Xrotation
		JOINT RightUpLeg
		{
			OFFSET -1.800000 -1.400000 0.085000
			CHANNELS 3 Zrotation Yrotation Xrotation
			JOINT RightLeg
			{
				OFFSET -2.215000 -6.000000 0.000000
				CHANNELS 3 Zrotation Yrotation Xrotation
				JOINT RightFoot
				{
					OFFSET -2.500000 -6.900000 0.000000
					CHANNELS 3 Zrotation Yrotation Xrotation
					JOINT RightToeBase
					{
						OFFSET -0.200000 -0.500000 1.950000
						CHANNELS 3 Zrotation Yrotation Xrotation
						End Site
						{
							OFFSET 0.000000 0.000000 0.000000
						}
					}
				}
			}
		}
	}
	JOINT LowerBack
	{
		OFFSET 0.000000 0.000000 0.000000
		CHANNELS 3 Zrotation Yrotation Xrotation
		JOINT Spine
		{
			OFFSET -0.087000 1.940000 -0.288900
			CHANNELS 3 Zrotation Yrotation Xrotation
			JOINT Spine1
			{
				OFFSET 0.000000 1.950000 0.060000
				CHANNELS 3 Zrotation Yrotation Xrotation
				JOINT Neck
				{
					OFFSET 0.000000 0.000000 0.000000
					CHANNELS 3 Zrotation Yrotation Xrotation
					JOINT Neck1
					{
						OFFSET 0.000000 1.600000 0.340000
						CHANNELS 3 Zrotation Yrotation Xrotation
						JOINT Head
						{
							OFFSET 0.000000 1.667000 -0.240000
							CHANNELS 3 Zrotation Yrotation Xrotation
							End Site
							{
								OFFSET 0.000000 0.000000 0.000000
							}
						}
					}
				}
				JOINT LeftShoulder
				{
					OFFSET 0.000000 0.000000 0.000000
					CHANNELS 3 Zrotation Yrotation Xrotation
					JOINT LeftArm
					{
						OFFSET 2.700000 1.550000 -0.730000
						CHANNELS 3 Zrotation Yrotation Xrotation
						JOINT LeftForeArm
						{
							OFFSET 5.450000 0.000000 0.000000
							CHANNELS 3 Zrotation Yrotation Xrotation
							JOINT LeftHand
							{
								OFFSET 3.450000 0.000000 0.000000
								CHANNELS 3 Zrotation Yrotation Xrotation
								JOINT LeftHandIndex1
								{
									OFFSET 0.750000 0.000000 0.000000
									CHANNELS 3 Zrotation Yrotation Xrotation
									End Site
									{
										OFFSET 0.000000 0.000000 0.000000
									}
								}
							}
						}
					}
				}
				JOINT RightShoulder
				{
					OFFSET 0.000000 0.000000 0.000000
					CHANNELS 3 Zrotation Yrotation Xrotation
					JOINT RightArm
					{
						OFFSET -2.700000 1.550000 -0.730000
						CHANNELS 3 Zrotation Yrotation Xrotation
						JOINT RightForeArm
						{
							OFFSET -5.450000 0.000000 0.000000
							CHANNELS 3 Zrotation Yrotation Xrotation
							JOINT RightHand
							{
								OFFSET -3.450000 0.000000 0.000000
								CHANNELS 3 Zrotation Yrotation Xrotation
								JOINT RightHandIndex1
								{
									OFFSET -0.750000 0.000000 0.000000
									CHANNELS 3 Zrotation Yrotation Xrotation
									End Site
									{
										OFFSET 0.000000 0.000000 0.000000
									}
								}
							}
						}
					}
				}
			}
		}
	}
}
MOTION
Frames: 13
Frame Time: 0.016667
20.551030 15.732510 -4.601530 3.989278 18.256511 -6.030061 -15.528047 13.247327 3.604728 14.053650 -3.459502 -7.069754 -18.897561 21.507858 45.676722 1.292854 11.225787 0.649197 0.693160 0.417480 0.608560 17.905869 -8.974483 4.082485 -15.362996 3.740010 -42.134686 4.008541 -2.450277 6.345333 -0.331617 -1.167412 3.680023 0.082810 -0.322200 0.310580 -2.805234 -3.386908 -9.141374 15.492483 -5.942584 33.804501 1.170552 -1.409911 2.073695 4.353604 2.801859 -14.886588 2.943506 -13.248256 43.784500 5.929370 -11.281650 -32.222780 -28.976665 -21.208900 8.011802 -33.976915 -0.520387 -4.781184 9.476249 -15.632657 -2.244708 -3.163141 2.999871 0.867650 -0.441760 0.537540 0.134540 19.690189 24.841237 9.079991 31.234911 11.004925 -10.402355 -19.878119 23.688036 -4.821150 2.285577 -1.238753 0.100350 0.099650 -0.205860 -0.171000 
20.537480 15.712390 -4.503960 3.984114 17.443596 -6.044402 -15.516640 13.272707 3.601225 14.454531 -3.218100 -6.196432 -19.176862 22.017446 45.953872 1.339932 11.381282 0.620105 0.682360 0.409190 0.615510 17.929831 -8.899975 4.128388 -15.558167 3.945140 -43.023188 4.028590 -2.586968 7.595099 -0.331480 -1.169218 3.684297 0.079600 -0.318780 0.293740 -2.842045 -3.505139 -9.149313 16.458936 -6.505097 34.176479 0.281956 -1.558503 2.330588 4.651175 2.116585 -15.043328 1.461673 -12.062465 43.862955 5.214010 -10.519730 -32.655050 -29.138898 -21.526318 8.117082 -33.177185 -0.538272 -4.216624 9.304238 -13.694686 -1.985890 -3.179870 2.963015 0.875070 -0.444170 0.538250 0.128340 19.204807 25.476897 9.279260 30.856374 11.179287 -9.958105 -19.987791 22.066955 -4.526485 2.308118 -1.212885 0.085180 0.126000 -0.202270 -0.177030 
20.505120 15.655650 -4.351420 3.571233 17.231685 -6.104962 -15.453470 13.178862 3.511981 16.077741 -2.796590 -4.491654 -19.618019 22.192957 44.877225 1.207839 11.441014 0.587586 0.651060 0.348460 0.623410 18.013047 -8.921853 4.189414 -16.254419 4.024268 -43.840027 4.429452 -2.865199 8.675326 -0.336991 -1.258874 3.633011 0.090320 -0.283370 0.291030 -3.051266 -3.186066 -9.094342 18.354929 -7.535939 33.472629 -1.867240 -2.034824 3.752401 5.390394 2.259947 -14.874575 2.023928 -11.451301 42.641534 4.622400 -9.440620 -34.537100 -27.357881 -21.640713 8.116671 -33.581049 -1.477590 -3.343939 9.899628 -10.448389 -1.806806 -3.279943 2.853679 0.951150 -0.427830 0.526250 0.093390 15.773762 25.259396 9.266238 32.775107 12.789275 -8.379499 -19.475549 18.741697 -3.873582 2.282526 -1.132659 0.003270 0.196140 -0.135020 -0.228190 
20.428530 15.598540 -4.167230 3.504195 18.362039 -6.002275 -15.488899 13.292553 3.458155 17.402227 -3.084373 -3.953004 -18.069397 21.764568 45.839118 1.205628 11.454355 0.580239 0.635400 0.336620 0.635190 17.972735 -8.878318 4.179490 -17.003337 3.567952 -43.886883 4.354402 -2.968290 8.820680 -0.338129 -1.324841 3.611895 0.075910 -0.293590 0.288400 -2.956206 -3.419472 -9.092892 18.246918 -7.907105 33.140493 -1.557701 -2.565086 3.867198 5.591644 2.607947 -15.426485 2.650237 -11.644137 41.760578 3.155610 -9.136800 -33.752990 -26.403647 -22.090735 8.540028 -33.684468 -0.857485 -3.091469 9.818401 -8.919918 -1.583932 -3.305907 2.847578 0.930290 -0.417080 0.524360 0.079950 14.251046 25.373295 9.774457 32.420362 11.674877 -7.771056 -18.919332 17.363962 -3.429787 2.310518 -1.129766 0.010240 0.184410 -0.138550 -0.232830 
20.344000 15.547260 -3.992020 3.474946 17.550745 -5.894290 -15.452963 13.188840 3.356419 18.847407 -2.558284 -2.181476 -18.440517 21.836496 44.434559 1.146237 11.385695 0.589489 0.664110 0.367750 0.651890 18.030290 -8.870099 4.297523 -17.816465 3.787103 -44.732607 5.311431 -3.159626 9.470996 -0.357610 -1.450868 3.542027 0.109810 -0.294600 0.306350 -3.074784 -3.090400 -9.072117 18.985336 -7.922890 32.518253 -2.608987 -2.574641 5.893194 6.070222 2.797511 -15.737699 3.408208 -11.433215 40.621148 2.524150 -8.682160 -33.989200 -24.812355 -22.711892 8.760013 -32.855667 -1.479602 -2.384703 9.741290 -6.453249 -1.345390 -3.358208 2.847643 0.937670 -0.406550 0.529600 0.079910 11.693637 25.986455 10.205008 32.955704 12.925692 -6.354834 -19.008963 13.140965 -2.838641 2.350224 -1.169191 0.008030 0.186690 -0.134140 -0.242250 
20.271800 15.509320 -3.809340 3.127115 17.719796 -5.843039 -15.437681 13.196254 3.245028 20.423417 -2.319083 -0.665270 -17.863414 21.234977 43.098854 1.073952 11.177124 0.656576 0.689230 0.421850 0.638000 18.057611 -8.856252 4.361492 -18.984023 3.643892 -45.320422 6.249770 -3.588562 11.080825 -0.384544 -1.678236 3.467905 0.142450 -0.274140 0.313670 -3.135186 -3.015773 -9.024846 20.141641 -8.398797 32.016623 -3.204098 -2.922603 6.973301 6.522488 2.651647 -15.543935 3.177877 -11.915674 39.126783 2.119840 -9.219120 -34.789110 -23.262067 -22.366552 8.494014 -32.211490 -2.484073 -1.660558 8.767951 -4.296211 -1.097881 -3.412202 2.818215 0.921490 -0.388650 0.533780 0.103320 9.270632 25.595001 10.412652 31.732149 13.623660 -4.533624 -17.248061 9.459959 -1.878630 2.392382 -1.147957 0.019680 0.214820 -0.139210 -0.220740 
20.178570 15.476160 -3.606670 2.909172 18.344754 -6.164164 -15.422579 13.273725 3.088498 21.902119 -2.333286 1.444346 -16.171086 20.288659 42.430252 1.010121 11.026207 0.743658 0.648920 0.367910 0.583160 18.081143 -8.805734 4.463187 -20.790591 3.284879 -45.698745 8.497288 -4.389787 13.536229 -0.384375 -2.148697 3.303643 0.141600 -0.199800 0.283580 -3.195280 -3.131145 -8.992351 20.638322 -9.296170 31.297013 -3.006895 -4.156714 9.326791 6.268621 1.322434 -16.322447 0.805614 -10.522978 38.792961 3.145390 -9.570730 -32.162130 -20.755782 -23.499245 9.171774 -32.205387 -2.532358 -0.824660 7.528244 -0.909966 -0.759906 -3.474464 2.802530 0.889280 -0.358800 0.469820 0.123610 7.463986 27.155384 11.302407 28.650148 13.850934 -3.402114 -15.763849 5.885492 -1.153504 2.470730 -1.136753 -0.024310 0.252760 -0.116170 -0.201160 
20.070260 15.448820 -3.385600 2.909250 19.308220 -6.211525 -15.392219 13.273388 2.863805 23.246808 -2.235397 3.388022 -14.133169 18.828927 40.931914 0.927277 10.615901 0.865154 0.656430 0.382270 0.554260 18.126404 -8.810559 4.605877 -23.217836 2.705701 -45.839697 11.309288 -5.516120 15.931600 -0.439322 -2.819497 3.047286 0.136180 -0.200420 0.321190 -3.313288 -2.972234 -8.933705 21.639179 -9.526133 30.541055 -3.921190 -4.176520 10.320287 6.284446 1.181920 -16.501463 0.668778 -10.801317 36.494153 3.658010 -9.841320 -31.965180 -17.994284 -23.481762 9.119421 -31.017251 -3.615117 -0.249483 5.882871 0.927740 -0.643436 -3.531673 2.853886 0.851620 -0.344420 0.460810 0.130120 4.597528 26.876802 12.165508 29.449912 12.598771 -2.566769 -15.083041 3.588760 -0.661426 2.510018 -1.193316 0.019810 0.195020 -0.115460 -0.179530 
19.982470 15.455090 -3.142200 1.782067 19.562602 -6.216770 -15.370092 13.478514 2.717981 25.097664 -1.880867 6.053919 -12.198186 17.098676 37.349479 0.844690 10.091736 1.095357 0.504350 0.167890 0.470490 18.135219 -8.716169 4.718086 -24.094959 3.045897 -45.739871 13.813743 -6.613022 18.281270 -0.419542 -3.328283 2.900813 0.005660 -0.140110 0.309240 -3.364594 -3.354595 -8.908929 24.436886 -11.031571 29.747999 -5.291178 -4.411337 10.237639 6.315150 -0.123517 -18.042522 -2.159542 -10.273967 36.639135 3.027060 -10.569010 -28.431310 -16.255859 -24.197126 10.199547 -31.082164 -0.987781 -0.473325 4.877294 0.745182 -0.590010 -3.543317 2.841110 0.828150 -0.311720 0.382510 0.099160 2.513833 28.262140 13.725827 27.349923 10.025752 -1.916368 -12.258904 2.225638 0.033690 2.579249 -1.105671 -0.021070 0.168420 -0.049800 -0.179860 
19.870470 15.456270 -2.884770 2.098133 20.940228 -6.238203 -15.355625 13.500391 2.520822 26.050366 -1.948086 8.202098 -9.729398 15.359304 35.084286 0.768002 9.611677 1.295428 0.438180 0.113250 0.436180 18.155226 -8.727904 4.850384 -26.354553 2.270381 -45.249006 16.998277 -8.389051 21.235294 -0.503753 -4.235800 2.612187 -0.041660 -0.101610 0.305220 -3.428222 -3.269581 -8.876586 25.384349 -11.661247 29.408996 -7.449191 -4.211539 10.362872 6.661898 0.707139 -18.617284 -0.526627 -11.483551 34.554505 2.151340 -10.765530 -28.524340 -14.331932 -24.173496 10.494788 -27.513398 -0.460963 -0.158924 3.612982 2.168899 -0.571551 -3.627762 2.746704 0.802010 -0.276640 0.367190 0.090560 -0.551526 27.709927 14.612194 28.756600 8.436693 -0.900356 -9.505649 0.152837 0.595637 2.608244 -1.028829 -0.028080 0.190080 -0.028750 -0.167110 
19.729620 15.480580 -2.591040 2.098907 20.682921 -6.088245 -15.469329 13.891414 2.524003 27.223881 -1.693190 10.573572 -7.764420 13.743262 31.006733 0.753830 9.061887 1.512640 0.393460 0.028120 0.420670 18.025381 -8.351521 4.995764 -27.701986 2.744061 -44.325056 21.274870 -10.376330 24.160571 -0.649297 -5.101219 2.331038 -0.134270 -0.147050 0.313890 -3.052526 -4.471268 -9.008549 25.032689 -12.226025 31.495971 -7.795475 -3.517211 5.037448 7.012026 -0.314652 -19.010086 -3.177855 -11.131996 36.653230 1.876240 -11.149560 -28.693830 -15.347821 -20.916784 9.614311 -25.008535 2.569506 -0.460391 2.911307 2.342134 -0.566779 -3.589162 2.742377 0.834970 -0.324960 0.386590 0.083390 -0.469069 26.209211 14.997522 26.613075 5.592446 -1.082439 -6.728731 0.835063 0.801272 2.658062 -0.934691 -0.006420 0.126380 -0.035160 -0.170460 
19.592160 15.505850 -2.334850 1.799418 20.917130 -6.491359 -15.471765 13.908191 2.420567 28.276236 -1.854899 11.816110 -5.523288 12.839264 30.354407 0.741544 8.910495 1.561990 0.335230 -0.020740 0.348490 18.027930 -8.318750 5.075772 -27.747593 3.352383 -43.999658 23.936501 -12.392616 27.626166 -0.768671 -5.960143 2.048044 -0.167610 -0.107540 0.346770 -3.044216 -4.479262 -8.973959 25.733241 -13.060092 32.291869 -9.761330 -3.179125 4.183414 7.233850 -0.091970 -19.348221 -2.121996 -11.456712 34.087606 2.401070 -11.022820 -27.823150 -12.381769 -19.166597 9.271243 -23.102581 4.124004 -0.909488 3.630254 0.245753 -0.609898 -3.653888 2.756856 0.792440 -0.279480 0.351420 0.067780 -4.297384 25.084994 15.668921 27.672332 4.190418 -0.951072 -4.598085 0.702346 0.843713 2.640776 -0.926692 0.007360 0.082350 0.009630 -0.152170 
19.491230 15.518790 -2.020510 0.988898 21.312299 -5.179871 -15.475939 13.888310 2.394110 29.385111 -2.266818 13.647793 -3.244293 11.089613 25.123172 0.664301 8.361074 1.802841 0.316620 -0.047460 0.362570 18.047843 -8.051200 5.272818 -27.878321 3.534559 -44.753455 27.903524 -14.625999 29.246434 -0.930119 -6.709662 1.833171 -0.170500 -0.092350 0.310390 -3.034847 -4.799636 -9.039359 27.858034 -14.894822 30.627128 -11.915952 -3.572407 -0.060743 7.465749 -0.598965 -18.300566 -2.710654 -11.190356 32.690117 0.600940 -10.263670 -26.908350 -10.903378 -14.480490 7.993066 -20.915299 7.662593 -1.647670 6.330446 -2.509906 -0.549641 -3.660842 2.718710 0.775270 -0.264690 0.323400 0.076370 -6.773851 21.507511 14.857285 28.093565 4.772202 -0.930928 -5.596528 1.049255 0.779591 2.654355 -0.946211 -0.028380 0.105330 -0.008560 -0.164310 
